<svg xmlns="http://www.w3.org/2000/svg" xmlns:xlink="http://www.w3.org/1999/xlink" width="500" zoomAndPan="magnify" viewBox="0 0 375 374.999991" height="500" preserveAspectRatio="xMidYMid meet" version="1.2"><defs/><g id="c88fc98d1e"><rect x="0" width="375" y="0" height="374.999991" style="fill:#ffffff;fill-opacity:1;stroke:none;"/><rect x="0" width="375" y="0" height="374.999991" style="fill:#f6f4f0;fill-opacity:1;stroke:none;"/><g style="fill:#ffa500;fill-opacity:1;"><g transform="translate(95.534617, 209.896133)"><path style="stroke:none" d="M 46.703125 -79.640625 C 51.140625 -80.066406 55.546875 -79.492188 59.921875 -77.921875 C 64.304688 -76.359375 68.304688 -73.898438 71.921875 -70.546875 C 75.546875 -67.203125 78.4375 -63.09375 80.59375 -58.21875 C 82.757812 -53.351562 83.84375 -47.894531 83.84375 -41.84375 C 83.84375 -34.601562 82.625 -28.359375 80.1875 -23.109375 C 77.757812 -17.867188 74.625 -13.460938 70.78125 -9.890625 C 66.945312 -6.328125 62.8125 -3.410156 58.375 -1.140625 C 53.945312 1.128906 49.648438 2.96875 45.484375 4.375 C 41.328125 5.78125 37.84375 6.972656 35.03125 7.953125 L 35.03125 36 C 35.03125 36.863281 34.707031 37.644531 34.0625 38.34375 C 33.414062 39.050781 32.601562 39.40625 31.625 39.40625 L 4.0625 39.40625 L 4.0625 38.4375 C 5.894531 38.007812 7.457031 37.0625 8.75 35.59375 C 10.050781 34.132812 10.703125 32.378906 10.703125 30.328125 L 10.703125 -66.65625 C 10.703125 -68.707031 10.050781 -70.460938 8.75 -71.921875 C 7.457031 -73.390625 5.894531 -74.285156 4.0625 -74.609375 L 4.0625 -75.578125 L 31.78125 -79.640625 C 31.894531 -79.640625 31.976562 -79.640625 32.03125 -79.640625 C 32.082031 -79.640625 32.164062 -79.640625 32.28125 -79.640625 C 33.144531 -79.640625 33.816406 -79.367188 34.296875 -78.828125 C 34.785156 -78.285156 35.03125 -77.632812 35.03125 -76.875 L 35.03125 -76.0625 C 36.757812 -76.925781 38.597656 -77.679688 40.546875 -78.328125 C 42.492188 -78.984375 44.546875 -79.421875 46.703125 -79.640625 Z M 35.03125 6.484375 C 37.945312 4.972656 40.863281 3.054688 43.78125 0.734375 C 46.707031 -1.585938 49.382812 -4.535156 51.8125 -8.109375 C 54.25 -11.679688 56.195312 -16.085938 57.65625 -21.328125 C 59.113281 -26.566406 59.84375 -32.921875 59.84375 -40.390625 C 59.84375 -47.085938 58.976562 -53.140625 57.25 -58.546875 C 55.519531 -63.953125 53.195312 -68.273438 50.28125 -71.515625 C 47.363281 -74.765625 44.117188 -76.390625 40.546875 -76.390625 C 38.816406 -76.390625 36.976562 -75.957031 35.03125 -75.09375 Z M 35.03125 6.484375 "/></g></g><g style="fill:#ffa500;fill-opacity:1;"><g transform="translate(167.706743, 209.896133)"><path style="stroke:none" d="M 43.796875 -5.84375 C 45.628906 -5.84375 47.25 -6.328125 48.65625 -7.296875 L 48.65625 -6.15625 C 46.707031 -4.757812 44.054688 -3.25 40.703125 -1.625 C 37.359375 0 33.414062 0.8125 28.875 0.8125 C 23.894531 0.8125 19.617188 -0.96875 16.046875 -4.53125 C 12.484375 -8.101562 10.703125 -12.378906 10.703125 -17.359375 L 10.703125 -78.65625 L 4.0625 -78.65625 L 4.0625 -79.640625 C 10.113281 -79.640625 15.757812 -80.960938 21 -83.609375 C 26.25 -86.253906 30.601562 -89.796875 34.0625 -94.234375 L 35.03125 -94.234375 L 35.03125 -79.640625 L 45.578125 -79.640625 L 45.578125 -78.65625 L 35.03125 -78.65625 L 35.03125 -14.59375 C 35.03125 -12.21875 35.894531 -10.164062 37.625 -8.4375 C 39.351562 -6.707031 41.410156 -5.84375 43.796875 -5.84375 Z M 43.796875 -5.84375 "/></g></g><g style="fill:#ffa500;fill-opacity:1;"><g transform="translate(201.440444, 209.896133)"><path style="stroke:none" d="M 42.65625 -80.28125 C 41.25 -80.28125 39.546875 -78.875 37.546875 -76.0625 C 35.546875 -73.25 33.785156 -69.488281 32.265625 -64.78125 C 30.753906 -60.082031 30 -54.867188 30 -49.140625 C 30 -42.003906 31.1875 -35.488281 33.5625 -29.59375 C 35.945312 -23.707031 39.140625 -19.03125 43.140625 -15.5625 C 47.140625 -12.101562 51.570312 -10.375 56.4375 -10.375 C 59.570312 -10.375 62.570312 -11.128906 65.4375 -12.640625 C 68.300781 -14.160156 70.867188 -16.269531 73.140625 -18.96875 L 73.953125 -18.484375 C 70.710938 -12.648438 66.332031 -7.972656 60.8125 -4.453125 C 55.300781 -0.941406 49.25 0.8125 42.65625 0.8125 C 35.84375 0.8125 29.648438 -1.023438 24.078125 -4.703125 C 18.515625 -8.378906 14.054688 -13.328125 10.703125 -19.546875 C 7.347656 -25.765625 5.671875 -32.65625 5.671875 -40.21875 C 5.671875 -47.789062 7.347656 -54.6875 10.703125 -60.90625 C 14.054688 -67.125 18.515625 -72.066406 24.078125 -75.734375 C 29.648438 -79.410156 35.84375 -81.25 42.65625 -81.25 C 48.164062 -81.25 53.300781 -80.0625 58.0625 -77.6875 C 62.820312 -75.3125 66.660156 -72.363281 69.578125 -68.84375 C 72.492188 -65.332031 73.953125 -61.847656 73.953125 -58.390625 C 73.953125 -54.929688 72.707031 -51.984375 70.21875 -49.546875 C 67.738281 -47.117188 64.769531 -45.90625 61.3125 -45.90625 C 57.957031 -45.90625 55.035156 -47.117188 52.546875 -49.546875 C 50.054688 -51.984375 48.8125 -54.929688 48.8125 -58.390625 C 48.8125 -61.203125 49.40625 -63.390625 50.59375 -64.953125 C 51.789062 -66.523438 52.957031 -67.957031 54.09375 -69.25 C 55.226562 -70.550781 55.796875 -72.117188 55.796875 -73.953125 C 55.796875 -75.898438 54.984375 -77.304688 53.359375 -78.171875 C 51.734375 -79.035156 49.867188 -79.601562 47.765625 -79.875 C 45.660156 -80.144531 43.957031 -80.28125 42.65625 -80.28125 Z M 42.65625 -80.28125 "/></g></g><g style="fill:#222222;fill-opacity:1;"><g transform="translate(79.607262, 265.815353)"><path style="stroke:none" d="M 1.453125 -3.15625 L 3.03125 -3.15625 C 3.425781 -3.15625 3.722656 -3.238281 3.921875 -3.40625 C 4.117188 -3.582031 4.21875 -3.847656 4.21875 -4.203125 C 4.21875 -4.523438 4.125 -4.769531 3.9375 -4.9375 C 3.75 -5.101562 3.457031 -5.1875 3.0625 -5.1875 L 1.453125 -5.1875 Z M 1.453125 0 L 0.65625 0 L 0.65625 -5.859375 L 3.296875 -5.859375 C 3.828125 -5.859375 4.25 -5.707031 4.5625 -5.40625 C 4.882812 -5.101562 5.046875 -4.707031 5.046875 -4.21875 C 5.046875 -3.707031 4.890625 -3.289062 4.578125 -2.96875 C 4.273438 -2.644531 3.847656 -2.484375 3.296875 -2.484375 L 1.453125 -2.484375 Z M 1.453125 0 "/></g></g><g style="fill:#222222;fill-opacity:1;"><g transform="translate(84.665375, 265.815353)"><path style="stroke:none" d="M 3.59375 -2.40625 L 2.734375 -4.984375 L 2.71875 -4.984375 L 1.765625 -2.40625 Z M 1.53125 -1.703125 L 0.90625 0 L 0.09375 0 L 2.3125 -5.859375 L 3.203125 -5.859375 L 5.328125 0 L 4.46875 0 L 3.875 -1.703125 Z M 1.53125 -1.703125 "/></g></g><g style="fill:#222222;fill-opacity:1;"><g transform="translate(89.890933, 265.815353)"><path style="stroke:none" d="M 1.453125 -3.15625 L 3.03125 -3.15625 C 3.425781 -3.15625 3.722656 -3.238281 3.921875 -3.40625 C 4.117188 -3.582031 4.21875 -3.847656 4.21875 -4.203125 C 4.21875 -4.523438 4.125 -4.769531 3.9375 -4.9375 C 3.75 -5.101562 3.457031 -5.1875 3.0625 -5.1875 L 1.453125 -5.1875 Z M 1.453125 0 L 0.65625 0 L 0.65625 -5.859375 L 3.296875 -5.859375 C 3.828125 -5.859375 4.25 -5.707031 4.5625 -5.40625 C 4.882812 -5.101562 5.046875 -4.707031 5.046875 -4.21875 C 5.046875 -3.707031 4.890625 -3.289062 4.578125 -2.96875 C 4.273438 -2.644531 3.847656 -2.484375 3.296875 -2.484375 L 1.453125 -2.484375 Z M 1.453125 0 "/></g></g><g style="fill:#222222;fill-opacity:1;"><g transform="translate(94.949046, 265.815353)"><path style="stroke:none" d="M 4.984375 0 L 0.65625 0 L 0.65625 -5.859375 L 4.9375 -5.859375 L 4.9375 -5.15625 L 1.453125 -5.15625 L 1.453125 -3.375 L 4.671875 -3.375 L 4.671875 -2.671875 L 1.453125 -2.671875 L 1.453125 -0.703125 L 4.984375 -0.703125 Z M 4.984375 0 "/></g></g><g style="fill:#222222;fill-opacity:1;"><g transform="translate(100.035065, 265.815353)"><path style="stroke:none" d="M 1.453125 -3.203125 L 3.296875 -3.203125 C 3.722656 -3.203125 4.023438 -3.285156 4.203125 -3.453125 C 4.390625 -3.628906 4.484375 -3.878906 4.484375 -4.203125 C 4.484375 -4.503906 4.398438 -4.742188 4.234375 -4.921875 C 4.078125 -5.097656 3.804688 -5.1875 3.421875 -5.1875 L 1.453125 -5.1875 Z M 1.453125 0 L 0.65625 0 L 0.65625 -5.859375 L 3.375 -5.859375 C 4.007812 -5.859375 4.488281 -5.722656 4.8125 -5.453125 C 5.132812 -5.191406 5.296875 -4.804688 5.296875 -4.296875 C 5.296875 -3.953125 5.226562 -3.664062 5.09375 -3.4375 C 4.96875 -3.21875 4.765625 -3.035156 4.484375 -2.890625 C 4.722656 -2.796875 4.894531 -2.671875 5 -2.515625 C 5.101562 -2.359375 5.164062 -2.113281 5.1875 -1.78125 L 5.234375 -0.6875 C 5.242188 -0.507812 5.273438 -0.382812 5.328125 -0.3125 C 5.378906 -0.238281 5.453125 -0.175781 5.546875 -0.125 L 5.546875 0 L 4.5625 0 C 4.507812 -0.144531 4.472656 -0.363281 4.453125 -0.65625 C 4.429688 -0.957031 4.421875 -1.226562 4.421875 -1.46875 C 4.421875 -1.59375 4.410156 -1.71875 4.390625 -1.84375 C 4.367188 -1.96875 4.320312 -2.078125 4.25 -2.171875 C 4.175781 -2.273438 4.070312 -2.359375 3.9375 -2.421875 C 3.800781 -2.484375 3.613281 -2.515625 3.375 -2.515625 L 1.453125 -2.515625 Z M 1.453125 0 "/></g></g><g style="fill:#222222;fill-opacity:1;"><g transform="translate(79.607262, 273.980377)"><path style="stroke:none" d="M 2.078125 -5.15625 L 0.09375 -5.15625 L 0.09375 -5.859375 L 4.859375 -5.859375 L 4.859375 -5.15625 L 2.875 -5.15625 L 2.875 0 L 2.078125 0 Z M 2.078125 -5.15625 "/></g></g><g style="fill:#222222;fill-opacity:1;"><g transform="translate(84.346428, 273.980377)"><path style="stroke:none" d="M 1.453125 0 L 0.65625 0 L 0.65625 -5.859375 L 1.453125 -5.859375 Z M 1.453125 0 "/></g></g><g style="fill:#222222;fill-opacity:1;"><g transform="translate(86.231025, 273.980377)"><path style="stroke:none" d="M 3.140625 -3.140625 L 5.71875 -3.140625 L 5.71875 0 L 5.203125 0 L 5.015625 -0.765625 C 4.765625 -0.441406 4.46875 -0.207031 4.125 -0.0625 C 3.789062 0.0820312 3.441406 0.15625 3.078125 0.15625 C 2.492188 0.15625 2.003906 0.03125 1.609375 -0.21875 C 1.210938 -0.476562 0.90625 -0.832031 0.6875 -1.28125 C 0.46875 -1.738281 0.359375 -2.304688 0.359375 -2.984375 C 0.359375 -3.828125 0.609375 -4.539062 1.109375 -5.125 C 1.609375 -5.71875 2.285156 -6.015625 3.140625 -6.015625 C 3.773438 -6.015625 4.328125 -5.835938 4.796875 -5.484375 C 5.265625 -5.128906 5.539062 -4.664062 5.625 -4.09375 L 4.859375 -4.09375 C 4.765625 -4.476562 4.566406 -4.773438 4.265625 -4.984375 C 3.960938 -5.203125 3.570312 -5.3125 3.09375 -5.3125 C 2.519531 -5.3125 2.054688 -5.09375 1.703125 -4.65625 C 1.347656 -4.226562 1.171875 -3.65625 1.171875 -2.9375 C 1.171875 -2.101562 1.34375 -1.488281 1.6875 -1.09375 C 2.039062 -0.707031 2.519531 -0.515625 3.125 -0.515625 C 3.519531 -0.515625 3.851562 -0.59375 4.125 -0.75 C 4.394531 -0.90625 4.601562 -1.117188 4.75 -1.390625 C 4.894531 -1.660156 4.96875 -2.015625 4.96875 -2.453125 L 3.140625 -2.453125 Z M 3.140625 -3.140625 "/></g></g><g style="fill:#222222;fill-opacity:1;"><g transform="translate(92.305778, 273.980377)"><path style="stroke:none" d="M 4.984375 0 L 0.65625 0 L 0.65625 -5.859375 L 4.9375 -5.859375 L 4.9375 -5.15625 L 1.453125 -5.15625 L 1.453125 -3.375 L 4.671875 -3.375 L 4.671875 -2.671875 L 1.453125 -2.671875 L 1.453125 -0.703125 L 4.984375 -0.703125 Z M 4.984375 0 "/></g></g><g style="fill:#222222;fill-opacity:1;"><g transform="translate(97.391798, 273.980377)"><path style="stroke:none" d="M 1.453125 -3.203125 L 3.296875 -3.203125 C 3.722656 -3.203125 4.023438 -3.285156 4.203125 -3.453125 C 4.390625 -3.628906 4.484375 -3.878906 4.484375 -4.203125 C 4.484375 -4.503906 4.398438 -4.742188 4.234375 -4.921875 C 4.078125 -5.097656 3.804688 -5.1875 3.421875 -5.1875 L 1.453125 -5.1875 Z M 1.453125 0 L 0.65625 0 L 0.65625 -5.859375 L 3.375 -5.859375 C 4.007812 -5.859375 4.488281 -5.722656 4.8125 -5.453125 C 5.132812 -5.191406 5.296875 -4.804688 5.296875 -4.296875 C 5.296875 -3.953125 5.226562 -3.664062 5.09375 -3.4375 C 4.96875 -3.21875 4.765625 -3.035156 4.484375 -2.890625 C 4.722656 -2.796875 4.894531 -2.671875 5 -2.515625 C 5.101562 -2.359375 5.164062 -2.113281 5.1875 -1.78125 L 5.234375 -0.6875 C 5.242188 -0.507812 5.273438 -0.382812 5.328125 -0.3125 C 5.378906 -0.238281 5.453125 -0.175781 5.546875 -0.125 L 5.546875 0 L 4.5625 0 C 4.507812 -0.144531 4.472656 -0.363281 4.453125 -0.65625 C 4.429688 -0.957031 4.421875 -1.226562 4.421875 -1.46875 C 4.421875 -1.59375 4.410156 -1.71875 4.390625 -1.84375 C 4.367188 -1.96875 4.320312 -2.078125 4.25 -2.171875 C 4.175781 -2.273438 4.070312 -2.359375 3.9375 -2.421875 C 3.800781 -2.484375 3.613281 -2.515625 3.375 -2.515625 L 1.453125 -2.515625 Z M 1.453125 0 "/></g></g><g style="fill:#222222;fill-opacity:1;"><g transform="translate(79.607262, 282.145402)"><path style="stroke:none" d="M 4.734375 -4.109375 C 4.648438 -4.503906 4.46875 -4.800781 4.1875 -5 C 3.90625 -5.207031 3.539062 -5.3125 3.09375 -5.3125 C 2.519531 -5.3125 2.054688 -5.101562 1.703125 -4.6875 C 1.347656 -4.269531 1.171875 -3.707031 1.171875 -3 C 1.171875 -2.164062 1.335938 -1.546875 1.671875 -1.140625 C 2.003906 -0.742188 2.488281 -0.546875 3.125 -0.546875 C 3.539062 -0.546875 3.894531 -0.679688 4.1875 -0.953125 C 4.488281 -1.234375 4.691406 -1.632812 4.796875 -2.15625 L 5.5625 -2.15625 C 5.457031 -1.40625 5.171875 -0.832031 4.703125 -0.4375 C 4.234375 -0.0390625 3.664062 0.15625 3 0.15625 C 2.195312 0.15625 1.554688 -0.117188 1.078125 -0.671875 C 0.597656 -1.222656 0.359375 -1.988281 0.359375 -2.96875 C 0.359375 -3.90625 0.609375 -4.644531 1.109375 -5.1875 C 1.609375 -5.738281 2.269531 -6.015625 3.09375 -6.015625 C 3.78125 -6.015625 4.332031 -5.835938 4.75 -5.484375 C 5.175781 -5.140625 5.425781 -4.679688 5.5 -4.109375 Z M 4.734375 -4.109375 "/></g></g><g style="fill:#222222;fill-opacity:1;"><g transform="translate(85.291307, 282.145402)"><path style="stroke:none" d="M 1.453125 0 L 0.65625 0 L 0.65625 -5.859375 L 1.453125 -5.859375 Z M 1.453125 0 "/></g></g><g style="fill:#222222;fill-opacity:1;"><g transform="translate(87.175903, 282.145402)"><path style="stroke:none" d="M 4.546875 -5.859375 L 5.3125 -5.859375 L 5.3125 0 L 4.421875 0 L 1.4375 -4.734375 L 1.421875 -4.734375 L 1.421875 0 L 0.65625 0 L 0.65625 -5.859375 L 1.59375 -5.859375 L 4.53125 -1.125 L 4.546875 -1.125 Z M 4.546875 -5.859375 "/></g></g><g style="fill:#222222;fill-opacity:1;"><g transform="translate(92.923737, 282.145402)"><path style="stroke:none" d="M 4.984375 0 L 0.65625 0 L 0.65625 -5.859375 L 4.9375 -5.859375 L 4.9375 -5.15625 L 1.453125 -5.15625 L 1.453125 -3.375 L 4.671875 -3.375 L 4.671875 -2.671875 L 1.453125 -2.671875 L 1.453125 -0.703125 L 4.984375 -0.703125 Z M 4.984375 0 "/></g></g><g style="fill:#222222;fill-opacity:1;"><g transform="translate(98.009757, 282.145402)"><path style="stroke:none" d="M 5.515625 0 L 5.515625 -3.46875 C 5.515625 -3.507812 5.515625 -3.726562 5.515625 -4.125 C 5.523438 -4.519531 5.53125 -4.785156 5.53125 -4.921875 L 5.5 -4.921875 L 3.859375 0 L 3.078125 0 L 1.4375 -4.921875 L 1.40625 -4.921875 C 1.40625 -4.722656 1.40625 -4.441406 1.40625 -4.078125 C 1.414062 -3.710938 1.421875 -3.507812 1.421875 -3.46875 L 1.421875 0 L 0.65625 0 L 0.65625 -5.859375 L 1.796875 -5.859375 L 3.46875 -0.90625 L 3.484375 -0.90625 L 5.140625 -5.859375 L 6.28125 -5.859375 L 6.28125 0 Z M 5.515625 0 "/></g></g><g style="fill:#222222;fill-opacity:1;"><g transform="translate(104.730376, 282.145402)"><path style="stroke:none" d="M 3.59375 -2.40625 L 2.734375 -4.984375 L 2.71875 -4.984375 L 1.765625 -2.40625 Z M 1.53125 -1.703125 L 0.90625 0 L 0.09375 0 L 2.3125 -5.859375 L 3.203125 -5.859375 L 5.328125 0 L 4.46875 0 L 3.875 -1.703125 Z M 1.53125 -1.703125 "/></g></g><g style="fill:#222222;fill-opacity:1;"><g transform="translate(270.825179, 265.815353)"><path style="stroke:none" d="M 4.125 -4.15625 C 4.101562 -4.519531 3.960938 -4.804688 3.703125 -5.015625 C 3.441406 -5.234375 3.097656 -5.34375 2.671875 -5.34375 C 2.234375 -5.34375 1.898438 -5.253906 1.671875 -5.078125 C 1.441406 -4.898438 1.328125 -4.644531 1.328125 -4.3125 C 1.328125 -4.132812 1.375 -3.976562 1.46875 -3.84375 C 1.570312 -3.71875 1.753906 -3.628906 2.015625 -3.578125 L 3.6875 -3.1875 C 4.144531 -3.09375 4.484375 -2.90625 4.703125 -2.625 C 4.921875 -2.351562 5.03125 -2.019531 5.03125 -1.625 C 5.03125 -1.039062 4.816406 -0.597656 4.390625 -0.296875 C 3.960938 0.00390625 3.410156 0.15625 2.734375 0.15625 C 2.210938 0.15625 1.800781 0.0859375 1.5 -0.046875 C 1.195312 -0.179688 0.929688 -0.390625 0.703125 -0.671875 C 0.472656 -0.960938 0.359375 -1.367188 0.359375 -1.890625 L 1.09375 -1.890625 C 1.09375 -1.453125 1.238281 -1.113281 1.53125 -0.875 C 1.820312 -0.632812 2.21875 -0.515625 2.71875 -0.515625 C 3.207031 -0.515625 3.582031 -0.597656 3.84375 -0.765625 C 4.113281 -0.941406 4.25 -1.191406 4.25 -1.515625 C 4.25 -1.796875 4.171875 -2.007812 4.015625 -2.15625 C 3.859375 -2.300781 3.546875 -2.425781 3.078125 -2.53125 L 1.8125 -2.828125 C 1.382812 -2.921875 1.066406 -3.085938 0.859375 -3.328125 C 0.648438 -3.566406 0.546875 -3.859375 0.546875 -4.203125 C 0.546875 -4.734375 0.722656 -5.164062 1.078125 -5.5 C 1.441406 -5.84375 1.941406 -6.015625 2.578125 -6.015625 C 3.296875 -6.015625 3.847656 -5.863281 4.234375 -5.5625 C 4.617188 -5.269531 4.828125 -4.800781 4.859375 -4.15625 Z M 4.125 -4.15625 "/></g></g><g style="fill:#222222;fill-opacity:1;"><g transform="translate(276.010869, 265.815353)"><path style="stroke:none" d="M 1.453125 0 L 0.65625 0 L 0.65625 -5.859375 L 1.453125 -5.859375 Z M 1.453125 0 "/></g></g><g style="fill:#222222;fill-opacity:1;"><g transform="translate(277.895466, 265.815353)"><path style="stroke:none" d="M 4.546875 -5.859375 L 5.3125 -5.859375 L 5.3125 0 L 4.421875 0 L 1.4375 -4.734375 L 1.421875 -4.734375 L 1.421875 0 L 0.65625 0 L 0.65625 -5.859375 L 1.59375 -5.859375 L 4.53125 -1.125 L 4.546875 -1.125 Z M 4.546875 -5.859375 "/></g></g><g style="fill:#222222;fill-opacity:1;"><g transform="translate(283.643299, 265.815353)"><path style="stroke:none" d="M 4.734375 -4.109375 C 4.648438 -4.503906 4.46875 -4.800781 4.1875 -5 C 3.90625 -5.207031 3.539062 -5.3125 3.09375 -5.3125 C 2.519531 -5.3125 2.054688 -5.101562 1.703125 -4.6875 C 1.347656 -4.269531 1.171875 -3.707031 1.171875 -3 C 1.171875 -2.164062 1.335938 -1.546875 1.671875 -1.140625 C 2.003906 -0.742188 2.488281 -0.546875 3.125 -0.546875 C 3.539062 -0.546875 3.894531 -0.679688 4.1875 -0.953125 C 4.488281 -1.234375 4.691406 -1.632812 4.796875 -2.15625 L 5.5625 -2.15625 C 5.457031 -1.40625 5.171875 -0.832031 4.703125 -0.4375 C 4.234375 -0.0390625 3.664062 0.15625 3 0.15625 C 2.195312 0.15625 1.554688 -0.117188 1.078125 -0.671875 C 0.597656 -1.222656 0.359375 -1.988281 0.359375 -2.96875 C 0.359375 -3.90625 0.609375 -4.644531 1.109375 -5.1875 C 1.609375 -5.738281 2.269531 -6.015625 3.09375 -6.015625 C 3.78125 -6.015625 4.332031 -5.835938 4.75 -5.484375 C 5.175781 -5.140625 5.425781 -4.679688 5.5 -4.109375 Z M 4.734375 -4.109375 "/></g></g><g style="fill:#222222;fill-opacity:1;"><g transform="translate(289.327344, 265.815353)"><path style="stroke:none" d="M 4.984375 0 L 0.65625 0 L 0.65625 -5.859375 L 4.9375 -5.859375 L 4.9375 -5.15625 L 1.453125 -5.15625 L 1.453125 -3.375 L 4.671875 -3.375 L 4.671875 -2.671875 L 1.453125 -2.671875 L 1.453125 -0.703125 L 4.984375 -0.703125 Z M 4.984375 0 "/></g></g><g style="fill:#222222;fill-opacity:1;"><g transform="translate(277.129684, 273.980377)"><path style="stroke:none" d="M 0.359375 -3.6875 C 0.359375 -4.363281 0.53125 -4.875 0.875 -5.21875 C 1.226562 -5.570312 1.71875 -5.75 2.34375 -5.75 C 2.875 -5.75 3.304688 -5.585938 3.640625 -5.265625 C 3.972656 -4.941406 4.140625 -4.53125 4.140625 -4.03125 C 4.140625 -3.632812 4.039062 -3.300781 3.84375 -3.03125 C 3.65625 -2.757812 3.375 -2.523438 3 -2.328125 L 2.015625 -1.78125 C 1.429688 -1.457031 1.097656 -1.085938 1.015625 -0.671875 L 4.140625 -0.671875 L 4.140625 0 L 0.21875 0 C 0.238281 -0.539062 0.351562 -0.988281 0.5625 -1.34375 C 0.769531 -1.707031 1.101562 -2.019531 1.5625 -2.28125 L 2.59375 -2.875 C 2.863281 -3.03125 3.0625 -3.191406 3.1875 -3.359375 C 3.3125 -3.535156 3.375 -3.769531 3.375 -4.0625 C 3.375 -4.351562 3.269531 -4.597656 3.0625 -4.796875 C 2.863281 -4.992188 2.585938 -5.09375 2.234375 -5.09375 C 1.847656 -5.09375 1.554688 -4.96875 1.359375 -4.71875 C 1.171875 -4.46875 1.078125 -4.125 1.078125 -3.6875 Z M 0.359375 -3.6875 "/></g></g><g style="fill:#222222;fill-opacity:1;"><g transform="translate(281.450232, 273.980377)"><path style="stroke:none" d="M 3.46875 -2.796875 C 3.46875 -3.566406 3.363281 -4.140625 3.15625 -4.515625 C 2.957031 -4.898438 2.660156 -5.09375 2.265625 -5.09375 C 1.878906 -5.09375 1.582031 -4.898438 1.375 -4.515625 C 1.164062 -4.140625 1.0625 -3.566406 1.0625 -2.796875 C 1.0625 -2.046875 1.164062 -1.472656 1.375 -1.078125 C 1.582031 -0.679688 1.878906 -0.484375 2.265625 -0.484375 C 2.660156 -0.484375 2.957031 -0.675781 3.15625 -1.0625 C 3.363281 -1.445312 3.46875 -2.023438 3.46875 -2.796875 Z M 4.234375 -2.796875 C 4.234375 -1.847656 4.0625 -1.117188 3.71875 -0.609375 C 3.382812 -0.0976562 2.898438 0.15625 2.265625 0.15625 C 1.609375 0.15625 1.113281 -0.109375 0.78125 -0.640625 C 0.457031 -1.171875 0.296875 -1.890625 0.296875 -2.796875 C 0.296875 -3.722656 0.460938 -4.445312 0.796875 -4.96875 C 1.140625 -5.488281 1.628906 -5.75 2.265625 -5.75 C 2.898438 -5.75 3.382812 -5.488281 3.71875 -4.96875 C 4.0625 -4.445312 4.234375 -3.722656 4.234375 -2.796875 Z M 4.234375 -2.796875 "/></g></g><g style="fill:#222222;fill-opacity:1;"><g transform="translate(285.770781, 273.980377)"><path style="stroke:none" d="M 0.359375 -3.6875 C 0.359375 -4.363281 0.53125 -4.875 0.875 -5.21875 C 1.226562 -5.570312 1.71875 -5.75 2.34375 -5.75 C 2.875 -5.75 3.304688 -5.585938 3.640625 -5.265625 C 3.972656 -4.941406 4.140625 -4.53125 4.140625 -4.03125 C 4.140625 -3.632812 4.039062 -3.300781 3.84375 -3.03125 C 3.65625 -2.757812 3.375 -2.523438 3 -2.328125 L 2.015625 -1.78125 C 1.429688 -1.457031 1.097656 -1.085938 1.015625 -0.671875 L 4.140625 -0.671875 L 4.140625 0 L 0.21875 0 C 0.238281 -0.539062 0.351562 -0.988281 0.5625 -1.34375 C 0.769531 -1.707031 1.101562 -2.019531 1.5625 -2.28125 L 2.59375 -2.875 C 2.863281 -3.03125 3.0625 -3.191406 3.1875 -3.359375 C 3.3125 -3.535156 3.375 -3.769531 3.375 -4.0625 C 3.375 -4.351562 3.269531 -4.597656 3.0625 -4.796875 C 2.863281 -4.992188 2.585938 -5.09375 2.234375 -5.09375 C 1.847656 -5.09375 1.554688 -4.96875 1.359375 -4.71875 C 1.171875 -4.46875 1.078125 -4.125 1.078125 -3.6875 Z M 0.359375 -3.6875 "/></g></g><g style="fill:#222222;fill-opacity:1;"><g transform="translate(290.09133, 273.980377)"><path style="stroke:none" d="M 1.203125 -3.34375 C 1.515625 -3.582031 1.882812 -3.703125 2.3125 -3.703125 C 2.832031 -3.703125 3.273438 -3.53125 3.640625 -3.1875 C 4.015625 -2.84375 4.203125 -2.398438 4.203125 -1.859375 C 4.203125 -1.273438 4.019531 -0.789062 3.65625 -0.40625 C 3.300781 -0.03125 2.800781 0.15625 2.15625 0.15625 C 1.59375 0.15625 1.148438 0.0195312 0.828125 -0.25 C 0.503906 -0.519531 0.316406 -0.910156 0.265625 -1.421875 L 1 -1.421875 C 1.039062 -1.109375 1.160156 -0.867188 1.359375 -0.703125 C 1.566406 -0.546875 1.851562 -0.46875 2.21875 -0.46875 C 2.570312 -0.46875 2.863281 -0.585938 3.09375 -0.828125 C 3.320312 -1.078125 3.4375 -1.390625 3.4375 -1.765625 C 3.4375 -2.160156 3.316406 -2.472656 3.078125 -2.703125 C 2.835938 -2.941406 2.53125 -3.0625 2.15625 -3.0625 C 1.726562 -3.0625 1.375 -2.878906 1.09375 -2.515625 L 0.46875 -2.546875 L 0.90625 -5.609375 L 3.875 -5.609375 L 3.875 -4.921875 L 1.4375 -4.921875 Z M 1.203125 -3.34375 "/></g></g></g></svg>